<?xml version="1.0" standalone="no"?>
<!DOCTYPE svg PUBLIC "-//W3C//DTD SVG 1.1//EN" "http://www.w3.org/Graphics/SVG/1.1/DTD/svg11.dtd" >
<!--
2013-9-30: Created.
-->
<svg>
<metadata>
Created by iconfont
</metadata>
<defs>

<font id="iconfont" horiz-adv-x="1024" >
  <font-face
    font-family="iconfont"
    font-weight="500"
    font-stretch="normal"
    units-per-em="1024"
    ascent="896"
    descent="-128"
  />
    <missing-glyph />
    
    <glyph glyph-name="xinfeng" unicode="&#58884;" d="M947.826 734.008H72.35c-35.034 0-63.535-28.503-63.535-63.535v-569.738c0-35.034 28.502-63.536 63.535-63.536h5.915c7.711-0.728 16.907-1.08 28.102-1.08 8.539 0 16.954 0.194 25.091 0.38l0.366 0.009c6.81 0.16 13.24 0.312 18.618 0.312h737.479c0.6-0.005 3.514-0.128 4.761-0.181 5.958-0.248 15.929-0.662 26.637-0.667h0.01c11.012 0 20.073 0.4 27.689 1.227h0.807c35.037 0 63.54 28.503 63.54 63.537V670.47c-0.003 35.034-28.507 63.538-63.539 63.538z m15.306-73.65V111.87l-310.129 272 310.129 276.488zM523.275 332.832l-0.918-0.87a15.079 15.079 0 0 0-9.275-4.36c-0.525-0.05-1.043-0.076-1.544-0.076-4.115 0-7.96 1.577-10.823 4.434l-0.559 0.558L97.86 685.334l0.693-0.016c5.186-0.13 9.939-0.352 13.088-0.499l0.14-0.006c3.06-0.142 5.084-0.234 6.66-0.234h777.25c6.93 0 14.234 0.218 21.297 0.429l1.358 0.038-395.071-352.214z m-124.319 24.285l68.276-59.88a63.706 63.706 0 0 1 9.574-7.667c9.303-6.086 20.153-9.606 31.387-10.183 1.21-0.062 2.3-0.09 3.337-0.09 15.617 0 30.596 5.67 42.193 15.978 0.337 0.302 0.67 0.616 1 0.93l0.667 0.628c0.17 0.157 0.34 0.316 0.509 0.477l60.828 54.227 303.428-266.11H97.245l301.711 271.69z m-36.513 32.023L57.045 114.13V656.977L362.443 389.14z"  horiz-adv-x="1027" />

    
    <glyph glyph-name="gongyi" unicode="&#58885;" d="M859.834182 169.611636l-241.726061-248.645818-59.655757 176.391758s444.974545 302.483394 448.806788 537.568969c0 0-53.697939 216.948364-253.315879 83.549091 0 0-85.612606-79.220364-99.219394-93.028848 0 0-154.872242 78.630788-213.488485 22.310788 0 0-188.369455-151.939879 84.774788-332.582788l47.088485-29.742546s-274.959515-18.075152-309.76 258.203152c0 0 34.536727 337.88897 351.619878 178.501818 0 0 212.061091 261.942303 431.166061 41.44097 0 0 255.332848-224.193939-186.290424-593.966546z m-304.531394 104.122182s-394.519273-79.685818-307.665455 260.328727c0 0-5.228606-276.262788 307.665455-260.328727z"  horiz-adv-x="1365" />

    
    <glyph glyph-name="zhangdan" unicode="&#58961;" d="M215.9 748.4c-13.5 0-24.4-10.9-24.4-24.4v-682.7c0-13.5 10.9-24.4 24.4-24.4H801c13.5 0 24.4 10.9 24.4 24.4V724c0 13.5-10.9 24.4-24.4 24.4H215.9z m0 48.8H801c40.4 0 73.1-32.7 73.1-73.1v-682.7c0-40.4-32.7-73.1-73.1-73.1H215.9c-40.4 0-73.1 32.7-73.1 73.1V724c0 40.4 32.7 73.2 73.1 73.2zM337.8 553.4h341.3c13.5 0 24.4-10.9 24.4-24.4 0-13.5-10.9-24.4-24.4-24.4H337.8c-13.5 0-24.4 10.9-24.4 24.4 0 13.4 11 24.4 24.4 24.4zM337.8 407.1h341.3c13.5 0 24.4-10.9 24.4-24.4 0-13.5-10.9-24.4-24.4-24.4H337.8c-13.5 0-24.4 10.9-24.4 24.4 0 13.5 11 24.4 24.4 24.4zM337.8 260.8h195c13.5 0 24.4-10.9 24.4-24.4 0-13.5-10.9-24.4-24.4-24.4h-195c-13.5 0-24.4 10.9-24.4 24.4 0 13.5 11 24.4 24.4 24.4z"  horiz-adv-x="1024" />

    
    <glyph glyph-name="huzhu" unicode="&#58889;" d="M734.544 737.008h1.04c96.864 0 207.232-44.688 207.232-228.192 0-93.456-74.224-197.008-161.072-286.24l-245.184 238.4c-0.992 0.336-1.616 1.072-2.32 1.792a17.504 17.504 0 0 1-12.256 4.928c-4.624 0-9.04-1.776-12.256-4.928-3.792-3.744-5.6-8.896-4.912-14.048 0.688-5.152 3.808-9.712 8.464-12.432l130.24-126.64 114.192-111.04c-14.848-14.4-30.048-28.48-45.6-42.208l-12.384 12.032-131.296 127.68h-0.032c-0.544 0.56-1.056 1.168-1.616 1.744a17.504 17.504 0 0 1-12.256 4.928c-4.624 0-9.04-1.776-12.256-4.928a16.56 16.56 0 0 1 0-23.856l144.032-139.904c-14.112-11.92-27.984-23.216-41.344-33.792l-12.384 12.064-131.312 127.68c-0.544 0.608-1.072 1.28-1.728 1.872a17.504 17.504 0 0 1-12.256 4.928c-4.624 0-9.04-1.776-12.256-4.928a16.688 16.688 0 0 1-5.008-13.152c0.368-4.864 2.912-9.328 6.96-12.32l140.848-137.136a1765.984 1765.984 0 0 0-44.512-32.72l-141.008 137.136c-0.992 0.352-1.616 1.104-2.32 1.792a17.504 17.504 0 0 1-12.256 4.928c-4.624 0-9.04-1.776-12.256-4.928a16.592 16.592 0 0 1-4.896-14.048c0.688-5.136 3.792-9.712 8.432-12.448l135.888-132.16c-20.928-14.24-33.584-22.064-33.584-22.064S81.168 283.376 81.168 508.816c0 182.896 110.048 227.632 205.488 227.632h1.28c91.68 0 170.992-65.6 205.312-98.88-0.128-0.128 145.648-150.544 205.728-212.496 2.08-2.144 4.128-4.064 6.08-5.728 1.456-2.672 3.648-4.944 6.336-6.544 4.24-4.224 9.28-6.24 14.08-6.24a16.736 16.736 0 0 1 16.672 18.64 17.024 17.024 0 0 1-8.16 12.416 19.568 19.568 0 0 1-5.744 4.576 71.552 71.552 0 0 1-19.712 14.32c-51.168 52.784-143.008 147.488-179.632 185.328 7.76 5.552 34.208 24.544 49.28 37.072 40.304 29.232 95.472 58.096 156.368 58.096m0 32c-57.488 0-116.416-21.6-175.152-64.208l-0.848-0.624-0.8-0.672c-9.472-7.856-26.768-20.864-47.456-35.648l-1.408-1.008c-43.536 40.656-124.848 101.584-220.944 101.584h-1.488c-71.184 0-237.264-25.296-237.264-259.632 0-240.08 426.64-519.088 444.8-530.848l16.992-11.008 17.216 10.64c0.544 0.336 13.504 8.352 34.768 22.832l7.056 4.8 0.176-0.176 9.504 6.768 15.68 10.672-0.288 0.288c14.752 10.544 28.576 20.736 42.176 31.072l5.392 4.096 0.192-0.192 10.272 8.128 13.728 10.432-0.256 0.24a1755.36 1755.36 0 0 1 40.416 33.072l3.936 3.312 0.192-0.192 8.96 7.92 13.904 11.728-0.288 0.288a1385.104 1385.104 0 0 1 46.336 42.896l2.064 2 0.304-0.288 10.16 10.448 11.12 10.784-0.32 0.304 1.344 1.376c112.896 116 170.144 219.808 170.144 308.56 0 234.832-167.296 260.192-239.232 260.192l-1.088 0.064z"  horiz-adv-x="1024" />

    
    <glyph glyph-name="kefuerjirengongfuwuxianxing" unicode="&#59731;" d="M142.222222 412.444444a28.444444 28.444444 0 0 1-28.444444-28.444444v-56.888889a28.444444 28.444444 0 0 1 56.888889 0v56.888889a28.444444 28.444444 0 0 1-28.444445 28.444444z m479.516445-388.778666c184.547556 2.332444 237.653333 49.152 240.810666 220.302222A85.361778 85.361778 0 0 0 796.444444 327.111111v56.888889c0 36.864 23.381333 68.266667 56.092445 80.213333C840.590222 641.820444 692.679111 782.222222 512 782.222222 331.320889 782.222222 183.438222 641.848889 171.463111 464.213333A85.361778 85.361778 0 0 0 227.555556 384v-56.888889a85.333333 85.333333 0 0 0-170.666667 0v56.888889c0 37.404444 24.092444 69.205333 57.6 80.725333C126.805333 673.564444 300.060444 839.111111 512 839.111111c211.911111 0 385.194667-165.546667 397.511111-374.385778A85.361778 85.361778 0 0 0 967.111111 384v-56.888889a85.333333 85.333333 0 0 0-47.587555-76.544c-2.446222-211.171556-80.896-281.628444-301.994667-283.818667a71.111111 71.111111 0 1 0 4.209778 56.917334zM881.777778 412.444444a28.444444 28.444444 0 0 1-28.444445-28.444444v-56.888889a28.444444 28.444444 0 0 1 56.888889 0v56.888889a28.444444 28.444444 0 0 1-28.444444 28.444444zM554.666667-14.222222a14.222222 14.222222 0 1 1 0 28.444444 14.222222 14.222222 0 0 1 0-28.444444z"  horiz-adv-x="1024" />

    
    <glyph glyph-name="xinyongqia" unicode="&#58938;" d="M908.2368-31.575039999999944H115.75808C51.9936-31.575039999999944 0 19.71199999999999 0 82.59583999999995V647.8540800000001c0 62.89408 51.9936 114.17088 115.75808 114.17088h792.4736c63.77472 0 115.7632-51.28192 115.7632-114.17088v-565.25824c0.00512-62.88384-51.98336-114.17088-115.75808-114.17088zM115.75808 689.8432c-23.54688 0-42.77248-18.76992-42.77248-41.98912v-565.25824c0-23.2192 19.03616-41.984 42.77248-41.984h792.4736c23.552 0 42.77248 18.7648 42.77248 41.984V647.8540800000001c0 23.2192-19.03104 41.98912-42.77248 41.98912H115.75808zM841.12896 473.49248H182.86592c-20.20864 0-36.49536 16.256-36.49536 35.99872 0 19.93216 16.48128 35.98848 36.49536 35.98848h658.46272c20.20864 0 36.49536-16.256 36.49536-35.98848 0-19.93216-16.48128-35.99872-36.69504-35.99872zM292.54144 112.78848000000005H182.86592c-20.20864 0-36.49536 16.06144-36.49536 35.98336 0 19.93728 16.48128 35.99872 36.49536 35.99872h109.67552c20.20864 0 36.49536-16.06656 36.49536-35.99872 0-19.92192-16.28672-35.98336-36.49536-35.98336z"  horiz-adv-x="1024" />

    
    <glyph glyph-name="youjiankuohao" unicode="&#58888;" d="M808.54 855.46L770.32 896 215.46 378.21 757.57-128l37.07 40.54-498.1 465.67 512 477.25z"  horiz-adv-x="1024" />

    
    <glyph glyph-name="icon-test" unicode="&#58890;" d="M862 590c0 49.7-40.3 90-90 90H252c-49.7 0-90-40.3-90-90v-412c0-49.7 40.3-90 90-90h520c49.7 0 90 40.3 90 90V590z m-610 30h520c16.5 0 30-13.5 30-30v-73H222v73c0 16.5 13.5 30 30 30z m520-472H252c-16.5 0-30 13.5-30 30V457h580v-279c0-16.5-13.5-30-30-30zM424 284H288c-16.6 0-30-13.4-30-30s13.4-30 30-30h136c16.6 0 30 13.4 30 30s-13.4 30-30 30z"  horiz-adv-x="1024" />

    
    <glyph glyph-name="yiwen" unicode="&#58919;" d="M512 896a512 512 0 1 1 0-1024A512 512 0 0 1 512 896z m3.648-804.544a54.848 54.848 0 0 0-54.848 54.08 55.616 55.616 0 0 0 54.848 54.848 54.848 54.848 0 0 0 54.144-54.848 54.144 54.144 0 0 0-54.144-54.08z m92.16 310.08a150.656 150.656 0 0 1-54.848-90.688v-36.544a38.016 38.016 0 0 0-73.152 0V302.08a207.744 207.744 0 0 0 76.8 137.536 189.44 189.44 0 0 1 68.736 119.936 95.104 95.104 0 0 1-103.104 102.4c-73.152 0-114.112-47.552-116.288-136.768a36.544 36.544 0 0 0-35.84-32.96 35.84 35.84 0 0 0-35.136 32.96v5.12A176.256 176.256 0 0 0 522.24 720.448a154.304 154.304 0 0 0 168.256-160.896 224.576 224.576 0 0 0-82.688-158.016z"  horiz-adv-x="1024" />

    
    <glyph glyph-name="licai" unicode="&#59062;" d="M768.8192 680.448C909.8752 585.0112 1006.933333 414.839467 1006.933333 235.229867 1006.933333-12.066133 822.459733-128 520.533333-128 218.606933-128 34.133333-12.049067 34.133333 235.229867c0 181.76 99.396267 353.860267 243.2 448.6144l-51.746133 101.597866a34.133333 34.133333 0 0 0 16.128 46.4896c43.485867 20.053333 58.589867 26.709333 80.008533 34.645334C378.402133 887.637333 432.810667 896 521.3696 896c86.101333 0 140.9024-7.936 197.956267-27.562667 23.7056-8.157867 40.4992-15.121067 88.9856-36.1984a34.133333 34.133333 0 0 0 16.469333-47.445333l-55.9616-104.3456z m-59.0848 34.235733l37.3248 69.632c-22.4768 9.557333-34.833067 14.370133-49.954133 19.5584C647.7312 820.872533 600.337067 827.733333 521.386667 827.733333c-80.913067 0-127.419733-7.150933-175.889067-25.1392a627.2 627.2 0 0 1-42.9056-17.902933l34.304-67.345067C393.966933 744.2944 456.106667 759.466667 520.533333 759.466667c66.525867 0 130.594133-16.1792 189.201067-44.782934zM520.533333-59.733333C789.504-59.733333 938.666667 34.013867 938.666667 235.229867 938.666667 472.149333 743.150933 691.2 520.533333 691.2S102.4 472.149333 102.4 235.229867C102.4 34.013867 251.562667-59.733333 520.533333-59.733333zM365.397333 416.989867c-13.482667 28.8768 16.469333 58.8288 45.346134 45.3632a280.098133 280.098133 0 0 1 236.6464 0c28.8768 13.4656 58.8288-16.4864 45.3632-45.3632a280.098133 280.098133 0 0 1 0-236.6464c13.4656-28.8768-16.4864-58.8288-45.3632-45.3632a280.098133 280.098133 0 0 1-236.6464 0c-28.8768-13.4656-58.8288 16.4864-45.3632 45.3632a280.098133 280.098133 0 0 1 0 236.6464z m85.623467-196.369067a348.4672 348.4672 0 0 0 156.091733 0 348.4672 348.4672 0 0 0 0 156.091733 348.4672 348.4672 0 0 0-156.091733 0 348.4672 348.4672 0 0 0 0-156.091733z"  horiz-adv-x="1024" />

    
    <glyph glyph-name="daikuan" unicode="&#58897;" d="M512 896C229.2 896 0 666.8 0 384s229.2-512 512-512 512 229.2 512 512S794.8 896 512 896z m0-964C262.4-68 60 134.4 60 384S262.4 836 512 836s452-202.4 452-452-202.4-452-452-452zM694.4 331.9L564.1 201.6c-28.8-28.8-75.4-28.8-104.1 0L329.6 331.9c-28.8 28.8-28.8 75.4 0 104.1l130.3 130.3c28.8 28.8 75.4 28.8 104.1 0L694.3 436c28.8-28.7 28.8-75.3 0.1-104.1z"  horiz-adv-x="1024" />

    
    <glyph glyph-name="shezhi" unicode="&#58895;" d="M891.392 384c0 39.762 24.146 74.721 61.507 89.062l19.128 7.342-5.059 19.85a466.831 466.831 0 0 1-50.995 123.219l-10.455 17.612-18.714-8.32a95.933 95.933 0 0 0-39.219-8.325 94.326 94.326 0 0 0-67.24 27.904c-28.12 28.12-35.769 69.899-19.482 106.435l8.356 18.75-17.664 10.454a469.356 469.356 0 0 1-123.29 50.985l-19.814 5.049-7.363-19.077c-14.433-37.392-49.403-61.553-89.078-61.553-39.757 0-74.716 24.146-89.062 61.517l-7.342 19.118-19.85-5.054a466.586 466.586 0 0 1-123.218-51l-17.613-10.455 8.32-18.714c16.266-36.567 8.617-78.356-19.477-106.455-17.945-17.95-41.866-27.837-67.348-27.837-13.589 0-26.757 2.78-39.132 8.269l-18.668 8.279-10.46-17.547a464.138 464.138 0 0 1-51.113-123.253l-5.043-19.815 19.077-7.362c37.376-14.434 61.532-49.398 61.532-89.078 0-39.757-24.146-74.716-61.517-89.068l-19.123-7.347 5.054-19.85a466.995 466.995 0 0 1 50.995-123.213l10.455-17.618 18.719 8.33a95.877 95.877 0 0 0 39.214 8.326c25.41 0 49.28-9.902 67.235-27.9 28.125-28.123 35.769-69.903 19.487-106.439l-8.356-18.75 17.664-10.454a469.028 469.028 0 0 1 123.29-50.98l19.814-5.049 7.363 19.078c14.449 37.386 49.413 61.542 89.093 61.542 39.762 0 74.721-24.146 89.068-61.512l7.347-19.123 19.85 5.059a467.174 467.174 0 0 1 123.218 50.99l17.618 10.46-8.33 18.719c-16.267 36.567-8.628 78.351 19.476 106.455 17.946 17.95 41.861 27.837 67.338 27.837 13.589 0 26.763-2.785 39.138-8.269l18.672-8.284 10.455 17.552a464.256 464.256 0 0 1 51.113 123.248l5.049 19.85-19.119 7.348c-37.365 14.34-61.501 49.305-61.501 89.062z m-5.857-199.542a142.013 142.013 0 0 1-37.95 5.115c-37.796 0-73.282-14.679-99.932-41.334-36.66-36.67-49.879-88.975-36.162-137.871a421.565 421.565 0 0 0-76.39-31.61c-24.874 44.287-71.225 71.93-123.101 71.93-51.784 0-98.13-27.648-123.07-71.936a422.543 422.543 0 0 0-76.559 31.662c13.317 48.517-0.066 101.765-36.111 137.805-26.64 26.71-62.096 41.42-99.84 41.42-12.98 0-25.708-1.725-38.037-5.15a421.023 421.023 0 0 0-31.626 76.41c44.288 24.874 71.936 71.225 71.936 123.101 0 51.789-27.648 98.135-71.936 123.07a417.91 417.91 0 0 0 31.703 76.467c12.293-3.4 24.996-5.115 37.95-5.115 37.79 0 73.282 14.679 99.932 41.334 36.664 36.669 49.889 88.97 36.173 137.87a420.639 420.639 0 0 0 76.385 31.612c24.873-44.288 71.224-71.936 123.095-71.936 51.789 0 98.13 27.643 123.07 71.94a422.932 422.932 0 0 0 76.559-31.666c-13.323-48.512 0.066-101.76 36.106-137.805 26.644-26.711 62.106-41.42 99.845-41.42a141.773 141.773 0 0 1 38.042 5.15 421.345 421.345 0 0 0 31.62-76.411c-44.287-24.863-71.924-71.21-71.924-123.09 0-51.876 27.638-98.227 71.926-123.1a418.627 418.627 0 0 0-31.703-76.442zM512 525.819c-78.198 0-141.819-63.621-141.819-141.819 0-78.203 63.621-141.824 141.819-141.824 78.203 0 141.824 63.621 141.824 141.824 0 78.198-63.621 141.819-141.824 141.819z m0-237.563c-52.792 0-95.739 42.952-95.739 95.744s42.952 95.739 95.739 95.739c52.797 0 95.744-42.952 95.744-95.739 0-52.797-42.947-95.744-95.744-95.744z"  horiz-adv-x="1024" />

    
    <glyph glyph-name="hongbao" unicode="&#58881;" d="M650.166 180.321h-248.845c-30.538 0-55.295 24.758-55.295 55.299v276.479l165.894-55.298h27.646l165.898 55.298v-276.479c0-30.54-24.76-55.299-55.298-55.299zM540.242 319.432l40.131 0.097c10.050-0.097 13.632 5.115 13.817 11.397 0.156 5.45-4.994 15.718-14.060 15.963h-40.116v9.677c0 0 30.449 31.099 38.352 38.265 7.878 7.2 9.868 12.835 4.999 18.659-4.937 5.941-13.638 5.573-20.005 0.301-6.464-5.359-37.562-34.248-37.562-34.248s-26.695 27.569-32.475 33.113c-5.187 4.997-16.206 9.836-22.133 3.127-6.186-7.014-1.377-15.776 2.497-19.609 3.862-3.795 37.269-39.116 37.269-39.116l-0.061-10.628c0 0-35.673 0-41.86 0s-11.653-11.009-11.458-16.86c0.2-5.82 4.885-10.385 11.443-10.385 6.557 0 41.738 0.244 41.738 0.244l-0.092-29.641c0 0-37.172 0-43.359 0s-11.38-6.231-11.629-12.082c-0.245-5.852 4.626-13.783 11.629-13.783 7.013 0 43.265 0 43.265 0s-0.076-10.141 0.186-14.364c0.584-9.434 6.772-13.295 15.041-13.448 8.273-0.157 14.142 6.767 14.123 12.956-0.028 5.115-0.148 14.857-0.148 14.857s36.008 0.063 42.808 0c6.801-0.059 11.886 6.827 11.609 13.783-0.244 6.983-4.47 12.325-14.794 12.325-10.327 0-39.38 0-39.38 0l0.23 29.399zM539.566 484.453h-27.645l-165.894 55.294c0 30.544 24.757 55.296 55.295 55.296h248.845c30.537 0 55.298-24.753 55.298-55.296l-165.898-55.294z"  horiz-adv-x="1024" />

    
    <glyph glyph-name="xiaolajiao" unicode="&#59013;" d="M225.47998668 525.99144657c-5.22761998-26.1380999 52.27619995-224.7876597 135.91812014-350.25053973 0-5.22761998 5.22761998-5.22761998 5.22761978-10.45524008 209.10479978-235.24289983 475.71341971-146.3733599 444.34769983-151.6009798-15.68285998-5.22761998-52.27619995 5.22761998-94.0971599 31.36571996-88.86953999 47.04857999-162.05621993 135.91811995-177.73908006 235.24289984-15.68285998 88.86953999-15.68285998 162.05621993-31.36571999 193.42193989-20.91048011 57.50382009-57.50382009 83.64191981-99.32477991 94.0971599-36.59333995 15.68285998-172.51145978 0-182.96669989-41.82095998zM272.5285668 750.7791065399999c5.22761998-125.46287985 115.00763988-198.64955984 94.0971598-193.42194005-15.68285998 5.22761998-36.59333995 146.3733599-41.82096 203.87718001 0 10.45524001-15.68285998 20.91048011-26.1380999 20.91047996-15.68285998-5.22761998-26.1380999-15.68285998-26.1380999-31.36571992z"  horiz-adv-x="1024" />

    
    <glyph glyph-name="buzan" unicode="&#58901;" d="M467.749 22.772h2.048c42.423 0 79.677 36.035 79.677 77.141V119.76c0 86.333 57.465 153.405 137.582 166.254V717.531H316.294c-34.718 0-65.487-23.845-74.703-57.758l-82.773-289.036a79.214 79.214 0 0 1 13.043-69.194 75.898 75.898 0 0 1 60.953-30.817h163.718c-5.583-12.264-8.948-24.503-9.704-31.427l-2.535-10.679a248.101 248.101 0 0 1 5.705-139.435l5.047-13.946a77.483 77.483 0 0 1 72.704-52.468z m258.803 265.63h64.245c41.228 0 77.434 38.57 77.434 82.505v269.19a77.531 77.531 0 0 1-77.434 77.458h-64.245v-429.153z"  horiz-adv-x="1024" />

    
    <glyph glyph-name="xiajiankuohao" unicode="&#58898;" d="M507.9 135.1L74.3 590l46.3 44.2 389.6-408.7 407 385.9 44-46.4z"  horiz-adv-x="1024" />

    
    <glyph glyph-name="dianzan1" unicode="&#58882;" d="M884.875894 472.856747L646.970506 472.856747c92.185562 340.464205-63.516616 357.853247-63.516616 357.853247-65.993017 0-52.312436-52.182476-57.3031-60.881602 0-166.502152-176.849824-296.971645-176.849824-296.971645l0-472.171899c0-46.607504 63.516616-63.393819 88.433098-63.393819l357.452111 0c33.641191 0 61.036122 88.224344 61.036122 88.224344 88.434122 300.70569 88.434122 390.177444 88.434122 390.177444C944.657442 477.820805 884.875894 472.856747 884.875894 472.856747L884.875894 472.856747 884.875894 472.856747zM884.875894 472.856747M251.671415 472.700181L109.214912 472.700181c-29.420053 0-29.873378-28.89612-29.873378-28.89612l29.420053-476.202703c0-30.309306 30.361495-30.309306 30.361495-30.309306L262.420223-62.70794799999999c25.686009 0 25.458835 20.049638 25.458835 20.049638L287.879058 436.588729C287.879058 473.162716 251.671415 472.700181 251.671415 472.700181L251.671415 472.700181 251.671415 472.700181zM251.671415 472.700181"  horiz-adv-x="1024" />

    
    <glyph glyph-name="xiaoxi-copy" unicode="&#58883;" d="M882.176 67.58399999999995l6.656-6.656 134.656-134.656H512c-282.624-0.512-512 204.8-512 457.728s229.376 458.24 512 458.24S1024 636.928 1024 384c0-122.88-53.76-233.984-141.824-316.416z m-208.384 235.52c44.544 0 80.896 36.352 80.896 80.896s-36.352 80.896-80.896 80.896c-44.544 0-80.896-36.352-80.896-80.896s36.352-80.896 80.896-80.896z m-323.584 0c44.544 0 80.896 36.352 80.896 80.896s-36.352 80.896-80.896 80.896-80.384-36.352-80.384-80.896 35.84-80.896 80.384-80.896z"  horiz-adv-x="1024" />

    
    <glyph glyph-name="rengongkefu" unicode="&#59302;" d="M511.609905 894.878476c267.995429 0 487.228952-218.453333 487.228952-485.376a485.571048 485.571048 0 0 0-409.258667-480.548571h-4.87619a38.278095 38.278095 0 0 0-7.021714 0.682666 82.846476 82.846476 0 0 0-75.824762-49.249523 82.651429 82.651429 0 0 0-82.797714 82.553904c0 45.641143 37.10781 82.553905 82.895238 82.553905 31.597714 0 59.099429-17.700571 73.045333-43.739428 199.728762 33.987048 345.916952 203.873524 345.916952 402.870857 0 228.10819-185.148952 412.525714-414.183619 412.525714-228.985905 0-414.134857-184.417524-414.134857-412.525714 0-97.03619 34.133333-189.293714 97.426286-262.095238 14.628571-14.57981 9.752381-38.814476-4.876191-53.394286-14.628571-14.57981-38.960762-9.752381-53.589333 4.87619C63.390476 186.12419 24.380952 292.912762 24.380952 409.453714 24.380952 676.425143 243.614476 894.878476 511.609905 894.878476z m-224.109715-427.154286c32.329143 0 58.514286-26.087619 58.465524-58.221714 0-32.231619-26.233905-58.319238-58.514285-58.270476A58.368 58.368 0 0 0 229.034667 409.453714c0 32.182857 26.185143 58.270476 58.514285 58.270476z m224.158477 0c32.280381 0 58.465524-26.087619 58.416762-58.221714 0-32.182857-26.185143-58.270476-58.465524-58.270476s-58.465524 26.087619-58.465524 58.270476 26.185143 58.270476 58.514286 58.270476z m224.109714 0c32.280381 0 58.465524-26.087619 58.465524-58.221714 0-32.182857-26.185143-58.270476-58.514286-58.270476-32.280381 0-58.416762 26.087619-58.416762 58.270476s26.136381 58.221714 58.465524 58.221714z"  horiz-adv-x="1024" />

    
    <glyph glyph-name="cuowu" unicode="&#59039;" d="M584.39412 385.744L1008.80212 808.36c19.966 19.966 20.222 52.475 0.256 72.441-20.222 20.222-52.475 20.222-72.44 0.256L511.95212 458.185 91.12812 880.801c-19.966 19.966-52.475 20.222-72.44 0-19.967-19.966-19.967-52.475 0-72.44L439.51012 386 15.10312-36.36c-19.966-19.967-20.222-52.476-0.256-72.442 9.983-10.239 23.038-15.102 36.35-15.102 13.054 0 26.11 5.12 36.091 14.846l424.41 422.36 424.663-426.2C946.34412-123.136 959.40012-128 972.71012-128c13.055 0 26.11 5.12 36.093 14.847 19.966 19.966 19.966 52.475 0 72.44L584.39412 385.745z"  horiz-adv-x="1024" />

    
    <glyph glyph-name="qq1" unicode="&#58955;" d="M138.899 317.22c-31.677-78.904-36.919-154.139-11.406-168.117 17.65-9.7 45.132 12.493 70.999 52.863 10.264-44.214 35.561-83.885 71.737-115.954-37.88-14.765-62.697-38.884-62.697-66.147 0-44.914 67.021-81.176 149.682-81.176 74.578 0 136.357 29.447 147.757 68.244 3.017 0 14.859 0 17.74 0 11.622-38.798 73.267-68.244 147.932-68.244 82.752 0 149.682 36.263 149.682 81.176 0 27.263-24.772 51.205-62.741 66.147 36.046 32.069 61.517 71.739 71.696 115.954 25.862-40.37 53.215-62.564 70.954-52.863 25.643 13.978 20.532 89.213-11.45 168.117-24.987 61.778-58.848 107.39-84.67 117.613 0.35 3.757 0.656 7.909 0.656 11.885 0 23.942-6.378 46.049-17.254 64.050 0.218 1.441 0.218 2.796 0.218 4.236 0 11.054-2.492 21.322-6.772 30.192-6.509 160.821-105.992 288.698-267.075 288.698-161.043 0-260.656-127.878-267.165-288.7-4.192-9-6.771-19.312-6.771-30.322 0-1.443 0-2.796 0.175-4.239-10.659-17.869-17.039-39.974-17.039-64.005 0-4.021 0.217-8.040 0.481-11.972-25.732-10.135-59.723-55.659-84.669-117.437z"  horiz-adv-x="1024" />

    
    <glyph glyph-name="weixin" unicode="&#58880;" d="M684.2624 559.3609220000001c10.256998 0 20.405555-0.753152 30.472294-1.873715C687.354982 684.9737729999999 551.049933 779.695104 395.467162 779.695104c-173.940736 0-316.424704-118.557184-316.424704-269.103923 0-86.8992 47.403622-158.259405 126.61801-213.608038l-31.648051-95.184896 110.615859 55.468339c39.581082-7.834419 71.337677-15.888896 110.837965-15.888896 9.929523 0 19.775181 0.490189 29.539021 1.257677-6.182093 21.154816-9.763738 43.312435-9.763738 66.302054C415.242342 447.174861 533.955994 559.3609220000001 684.2624 559.3609220000001zM514.125517 645.1508220000001c23.825613 0 39.60873-15.673958 39.60873-39.484314 0-23.715123-15.783117-39.607091-39.60873-39.607091-23.716147 0-47.513088 15.891968-47.513088 39.607091C466.612429 629.477888 490.40937 645.1508220000001 514.125517 645.1508220000001zM292.671693 566.0605439999999c-23.713075 0-47.648154 15.891968-47.648154 39.607091 0 23.810253 23.934054 39.484314 47.648154 39.484314 23.715123 0 39.499264-15.673958 39.499264-39.484314C332.170957 581.95241 316.386816 566.0605439999999 292.671693 566.0605439999999zM973.059686 312.739021c0 126.504141-126.593434 229.620736-268.773478 229.620736-150.553088 0-269.128499-103.116493-269.128499-229.620736 0-126.72215 118.576538-229.620736 269.128499-229.620736 31.510938 0 63.294157 7.945933 94.942208 15.877632l86.79127-47.525376-23.796941 79.073894C925.73696 178.193715 973.059686 241.37871399999995 973.059686 312.739021zM617.027379 352.331776c-15.755469 0-31.648051 15.673958-31.648051 31.661056 0 15.766118 15.892582 31.643648 31.648051 31.643648 23.934054 0 39.60873-15.877632 39.60873-31.643648C656.636109 368.00573399999996 640.961434 352.331776 617.027379 352.331776zM791.077581 352.331776c-15.647027 0-31.430144 15.673958-31.430144 31.661056 0 15.766118 15.783117 31.643648 31.430144 31.643648 23.715123 0 39.605658-15.877632 39.605658-31.643648C830.684262 368.00573399999996 814.793626 352.331776 791.077581 352.331776z"  horiz-adv-x="1024" />

    
    <glyph glyph-name="yanjing" unicode="&#59107;" d="M1738.666667 346.666667l-80 80c-5.333333 5.333333-10.666667 5.333333-16 5.333333 21.333333 21.333333 42.666667 48 58.666666 74.666667 5.333333 10.666667 10.666667 16 10.666667 26.666666 0 16-10.666667 32-32 32-10.666667 0-16-5.333333-21.333333-10.666666-90.666667-138.666667-250.666667-229.333333-426.666667-229.333334-181.333333 0-336 90.666667-432 234.666667-5.333333 5.333333-10.666667 5.333333-21.333333 5.333333-16 0-32-10.666667-32-32 0-5.333333 5.333333-16 5.333333-21.333333 16-21.333333 32-42.666667 48-58.666667-5.333333 0-10.666667-5.333333-10.666667-5.333333L709.333333 362.666667c-10.666667-10.666667-10.666667-32 0-42.666667 10.666667-10.666667 32-10.666667 42.666667 0l80 85.333333c5.333333 5.333333 5.333333 10.666667 5.333333 10.666667 37.333333-37.333333 85.333333-69.333333 133.333334-90.666667l-48-101.333333c-5.333333-16 0-32 16-37.333333 16-5.333333 32 0 37.333333 16l48 101.333333c48-16 101.333333-32 154.666667-37.333333V149.333333c0-16 10.666667-32 32-32s32 10.666667 32 32v117.333334c64 0 122.666667 16 181.333333 32l48-106.666667c5.333333-16 21.333333-21.333333 37.333333-16 16 5.333333 21.333333 21.333333 16 37.333333l-48 101.333334c48 21.333333 90.666667 53.333333 133.333334 85.333333 0-5.333333 5.333333-10.666667 5.333333-16l80-80c10.666667-10.666667 32-10.666667 42.666667 0 10.666667 16 10.666667 32 0 42.666667z"  horiz-adv-x="2368" />

    


  </font>
</defs>
</svg>
